<svg enable-background="new 0 0 45 45" viewBox="0 0 45 45" xmlns="http://www.w3.org/2000/svg" xmlns:xlink="http://www.w3.org/1999/xlink"><clipPath id="a"><path d="m0 36h36v-36h-36z"/></clipPath><g clip-path="url(#a)" fill="#5dadec" transform="matrix(1.25 0 0 -1.25 0 45)"><path d="m0 0-6.363-1.301c-.45-.093-.819-.544-.819-1.003v-1.529-2.255-12.073c-.613.209-1.287.328-2 .328-2.761 0-5-1.741-5-3.888 0-2.148 2.239-3.889 5-3.889 2.713 0 4.909 1.683 4.986 3.777h.014v15.523l4.182.855c.45.093.818.544.818 1.003v3.785c0 .459-.368.759-.818.667" transform="translate(14.182 35.833)"/><path d="m0 0-6.363-1.301c-.45-.093-.819-.544-.819-1.003v-1.529-2.255-12.073c-.613.209-1.288.328-2 .328-2.761 0-5-1.741-5-3.888 0-2.148 2.239-3.889 5-3.889 2.713 0 4.909 1.683 4.986 3.777h.014v15.523l4.182.855c.45.093.818.544.818 1.003v3.785c0 .459-.368.759-.818.667" transform="translate(35.182 31.833)"/><path d="m0 0-6.363-1.301c-.45-.093-.819-.544-.819-1.003v-1.529-2.255-12.073c-.613.209-1.287.328-2 .328-2.761 0-5-1.741-5-3.888 0-2.148 2.239-3.889 5-3.889 2.713 0 4.909 1.683 4.986 3.777h.014v15.523l4.182.855c.45.093.818.544.818 1.003v3.785c0 .459-.368.759-.818.667" transform="translate(23.182 25.833)"/></g></svg>